<svg width="512" height="512" viewBox="0 0 512 512" fill="none" xmlns="http://www.w3.org/2000/svg">
  <defs>
    <linearGradient id="brand-ring" x1="72" y1="58" x2="442" y2="452" gradientUnits="userSpaceOnUse">
      <stop stop-color="#00BCE6"/>
      <stop offset="0.5" stop-color="#2962FF"/>
      <stop offset="1" stop-color="#D500F9"/>
    </linearGradient>
    <radialGradient id="core-glow" cx="0" cy="0" r="1" gradientTransform="translate(256 256) rotate(90) scale(232)" gradientUnits="userSpaceOnUse">
      <stop stop-color="#2962FF" stop-opacity="0.17"/>
      <stop offset="1" stop-color="#000000" stop-opacity="0"/>
    </radialGradient>
  </defs>
  <circle cx="256" cy="256" r="250" fill="#000000"/>
  <circle cx="256" cy="256" r="232" fill="url(#core-glow)"/>
  <circle cx="256" cy="256" r="246" stroke="url(#brand-ring)" stroke-width="10"/>
  <g transform="translate(76.025 419.3) scale(.115 -.115)" fill="#FFFFFF">
    <path d="M1725 2553c0-13-444-416-476-433-9-5-165-10-348-11l-332-1-34 23c-46 32-305 376-305 405 0 12 6 25 13 27 6 3 343 5 747 4 579-2 735-5 735-14ZM2898 2558c7-7 12-18 12-24 0-7-67-100-150-207-109-142-159-198-182-208-25-10-101-14-318-14-255 0-289-2-321-18-23-11-150-140-335-340-164-177-305-322-313-322-14 0-16 31-19 253-2 221 0 258 15 289 10 22 98 109 232 232 345 312 377 340 412 356 28 12 113 14 494 15 346 0 464-3 473-12ZM1818 1221c3-662 13-602-125-701-255-184-367-260-382-260-40 0-41 7-41 480 1 332 4 462 13 482 16 37 508 569 521 565 8-3 12-174 14-566Z"/>
  </g>
</svg>
